<svg xmlns="http://www.w3.org/2000/svg" width="800" height="260" viewBox="0 0 800 260" fill="none">
  <rect width="800" height="260" fill="#0F2A4A"/>
  <path d="M0 170C70 150 130 190 200 170C270 150 330 190 400 170C470 150 530 190 600 170C670 150 730 190 800 170V260H0V170Z" fill="#1D6FA3"/>
  <path d="M0 190C70 170 130 210 200 190C270 170 330 210 400 190C470 170 530 210 600 190C670 170 730 210 800 190V260H0V190Z" fill="#2FA3D6"/>
  <path d="M0 210C70 190 130 230 200 210C270 190 330 230 400 210C470 190 530 230 600 210C670 190 730 230 800 210V260H0V210Z" fill="#7ED6F7" fill-opacity="0.75"/>
</svg>
